<?xml version="1.0" standalone="no"?>
<!DOCTYPE svg PUBLIC "-//W3C//DTD SVG 20010904//EN"
 "http://www.w3.org/TR/2001/REC-SVG-20010904/DTD/svg10.dtd">
<svg version="1.0" xmlns="http://www.w3.org/2000/svg"
 width="648.000000pt" height="200.000000pt" viewBox="0 0 648.000000 200.000000"
 preserveAspectRatio="xMidYMid meet">

<g transform="translate(0.000000,200.000000) scale(0.100000,-0.100000)"
fill="#000000" stroke="none">
<path d="M2390 1989 c-328 -32 -676 -107 -1125 -242 -323 -97 -707 -174 -910
-183 -166 -7 -200 -12 -229 -35 l-25 -20 34 -48 c19 -27 35 -57 36 -67 0 -17
1 -17 7 -2 6 13 31 -5 124 -90 l117 -107 -136 -3 c-102 -2 -138 1 -145 10 -6
10 -8 10 -8 0 0 -7 -25 -25 -56 -40 l-57 -27 6 -122 c5 -99 3 -124 -9 -134
-10 -8 -14 -34 -14 -92 l0 -80 56 -64 c49 -55 55 -67 47 -86 -9 -19 -4 -30 39
-77 27 -30 55 -62 62 -71 8 -9 36 -22 64 -28 69 -14 233 -34 239 -28 2 3 0 31
-6 63 -6 32 -11 98 -11 148 1 381 226 596 625 599 78 1 127 -4 169 -17 201
-60 336 -202 395 -414 26 -95 44 -255 39 -362 l-3 -85 495 -8 c1271 -19 2566
-34 2571 -28 3 3 1 49 -4 101 -20 182 21 395 100 529 100 168 297 272 518 274
277 2 487 -161 567 -438 20 -70 23 -103 23 -257 l0 -177 44 -7 c58 -9 233 3
296 20 103 27 136 55 139 117 2 35 -2 44 -26 62 -27 20 -28 23 -28 119 0 64 5
108 14 126 7 15 17 63 20 107 4 44 14 112 22 150 l14 70 -27 22 c-44 36 -266
146 -393 196 -426 166 -980 257 -1573 257 l-177 0 -83 41 c-400 202 -760 332
-1087 394 -217 41 -535 55 -750 34z m610 -163 c284 -39 562 -129 844 -274 l91
-47 -150 -3 c-146 -3 -995 14 -1085 22 -25 3 -88 7 -140 11 -134 9 -260 24
-280 35 -9 5 -23 38 -33 82 -10 40 -20 83 -23 95 -5 18 0 23 33 32 41 12 237
48 293 54 89 10 355 5 450 -7z m-864 -113 c3 -16 10 -44 15 -63 15 -60 16 -60
-68 -60 -83 0 -394 27 -402 35 -2 3 -2 7 0 9 16 16 364 100 431 105 11 1 20
-9 24 -26z m4029 -544 c51 -14 193 -84 230 -113 l29 -23 -18 -67 c-17 -62 -20
-66 -47 -66 -76 0 -218 86 -308 187 -52 58 -61 77 -38 86 22 10 111 7 152 -4z"/>
<path d="M162 1350 c0 -14 2 -19 5 -12 2 6 2 18 0 25 -3 6 -5 1 -5 -13z"/>
<path d="M152 1300 c0 -14 2 -19 5 -12 2 6 2 18 0 25 -3 6 -5 1 -5 -13z"/>
<path d="M142 1240 c0 -14 2 -19 5 -12 2 6 2 18 0 25 -3 6 -5 1 -5 -13z"/>
<path d="M1025 1129 c-187 -18 -365 -142 -449 -314 -45 -90 -55 -139 -56 -251
0 -157 50 -276 164 -390 185 -185 443 -225 681 -106 139 69 265 230 295 379
17 82 8 235 -18 308 -28 77 -102 184 -161 235 -49 42 -152 100 -213 119 -56
18 -165 27 -243 20z m204 -138 c83 -26 137 -60 198 -123 58 -63 87 -114 108
-195 79 -302 -197 -597 -509 -545 -309 52 -474 371 -335 644 28 54 113 143
167 175 107 63 255 80 371 44z"/>
<path d="M1168 889 c-9 -30 -19 -74 -22 -99 l-6 -45 16 34 c17 37 37 136 32
153 -2 5 -11 -14 -20 -43z"/>
<path d="M1016 885 c4 -28 13 -68 20 -90 l12 -40 1 39 c1 40 -16 114 -31 131
-4 5 -5 -13 -2 -40z"/>
<path d="M1288 812 c-64 -68 -84 -110 -26 -55 39 38 86 103 75 103 -2 0 -25
-22 -49 -48z"/>
<path d="M890 806 c19 -27 46 -56 60 -65 22 -14 21 -11 -10 33 -19 27 -46 56
-60 65 -22 14 -21 11 10 -33z"/>
<path d="M1395 716 c-51 -16 -108 -46 -102 -53 11 -10 147 48 147 63 0 2 -1 4
-2 3 -2 0 -21 -6 -43 -13z"/>
<path d="M770 716 c0 -8 67 -46 109 -61 23 -8 39 -10 36 -5 -12 19 -145 80
-145 66z"/>
<path d="M1045 690 c-11 -4 -33 -21 -48 -37 -76 -81 -16 -213 98 -213 109 0
170 120 104 204 -38 49 -102 68 -154 46z"/>
<path d="M735 560 c-7 -12 108 -12 145 0 17 6 -1 8 -57 9 -45 1 -85 -3 -88 -9z"/>
<path d="M1325 560 c7 -12 109 -12 145 0 17 5 -4 8 -63 9 -57 1 -86 -3 -82 -9z"/>
<path d="M1301 471 c31 -24 105 -61 121 -61 18 1 -16 26 -74 56 -56 29 -80 31
-47 5z"/>
<path d="M870 462 c-52 -25 -112 -64 -106 -69 6 -6 105 42 136 67 30 24 18 24
-30 2z"/>
<path d="M939 383 c-44 -46 -83 -102 -76 -109 6 -6 71 70 97 113 11 18 18 33
17 33 -2 0 -19 -17 -38 -37z"/>
<path d="M1220 407 c0 -17 55 -89 88 -113 l35 -28 -30 45 c-32 45 -93 108 -93
96z"/>
<path d="M1033 338 c-7 -26 -13 -64 -12 -85 l1 -38 14 45 c8 25 13 63 12 85
l-3 40 -12 -47z"/>
<path d="M1135 334 c3 -23 14 -61 25 -85 l20 -44 -6 45 c-3 25 -15 63 -25 85
l-19 40 5 -41z"/>
<path d="M5275 1100 c-358 -72 -549 -457 -383 -774 65 -123 207 -235 343 -271
74 -19 213 -19 285 0 190 50 346 208 391 395 44 184 -19 384 -165 517 -122
112 -311 165 -471 133z m238 -130 c123 -38 228 -140 273 -265 26 -73 24 -203
-5 -278 -42 -108 -140 -206 -248 -247 -77 -30 -214 -33 -291 -7 -246 86 -360
354 -248 583 54 108 163 197 273 223 69 16 177 12 246 -9z"/>
<path d="M5447 873 c-21 -65 -31 -131 -19 -118 18 18 52 165 39 165 -3 0 -12
-21 -20 -47z"/>
<path d="M5306 867 c3 -26 12 -65 20 -85 l14 -37 -5 54 c-4 29 -13 68 -21 85
l-14 31 6 -48z"/>
<path d="M5555 798 c-62 -69 -78 -103 -23 -51 39 39 86 103 74 103 -2 0 -25
-23 -51 -52z"/>
<path d="M5160 833 c0 -6 22 -36 50 -65 27 -29 49 -48 50 -41 0 6 -22 36 -50
65 -27 29 -49 48 -50 41z"/>
<path d="M5095 696 c41 -27 129 -61 121 -47 -6 10 -105 58 -136 66 -18 4 -15
-1 15 -19z"/>
<path d="M5645 708 c-38 -14 -94 -48 -79 -48 19 0 93 28 117 45 25 18 7 19
-38 3z"/>
<path d="M5324 681 c-40 -18 -74 -67 -74 -105 0 -63 65 -126 130 -126 132 0
166 185 44 236 -43 18 -50 17 -100 -5z"/>
<path d="M5055 572 c-29 -6 -29 -6 10 -11 52 -8 116 -1 109 10 -5 9 -68 10
-119 1z"/>
<path d="M5605 570 c-22 -5 -6 -8 53 -9 53 -1 81 3 77 9 -7 11 -85 11 -130 0z"/>
<path d="M5583 474 c36 -24 98 -54 113 -54 12 0 -40 37 -83 59 -58 29 -76 26
-30 -5z"/>
<path d="M5155 466 c-27 -13 -59 -31 -70 -40 -20 -17 -20 -17 5 -10 30 7 107
50 115 64 8 14 7 13 -50 -14z"/>
<path d="M5219 387 c-19 -23 -43 -55 -53 -72 -19 -30 -18 -30 18 5 38 36 82
98 74 105 -2 3 -20 -15 -39 -38z"/>
<path d="M5508 393 c11 -16 37 -44 57 -63 30 -27 35 -30 25 -12 -16 31 -80
102 -92 102 -5 0 0 -12 10 -27z"/>
<path d="M5321 364 c-18 -71 -24 -127 -13 -120 11 7 37 144 29 153 -3 3 -10
-12 -16 -33z"/>
<path d="M5416 351 c4 -25 15 -63 25 -85 l19 -41 -6 44 c-4 25 -15 63 -25 85
l-19 41 6 -44z"/>
</g>
</svg>
